# xmcd
#
# Track frame offsets:
#	150
#	19105
#	45236
#	64014
#	89411
#	111411
#	146086
#	165928
#
# Disc length: 2686 seconds
#
# Revision: 1
# Processed by: cddbd v1.5.1PL2 Copyright (c) Steve Scherf et al.
# Submitted via: EasyCDDAExtractor 9.0.0.1
#
DISCID=610a7c08
DTITLE=Blue Oyster Cult - Old Waldorf San Fransisco 17-03-79 Disc 1 Late Show
DYEAR=1979
DGENRE=Hard Rock
TTITLE0=Stairway To The Stars
TTITLE1=ETI
TTITLE2=Your Not The One
TTITLE3=The Great Sun Jester
TTITLE4=Cities On Flame
TTITLE5=Maserati GT(I Ain't Got You)
TTITLE6=Gun
TTITLE7=The Last Days of May
EXTD=
EXTT0=
EXTT1=
EXTT2=
EXTT3=
EXTT4=
EXTT5=
EXTT6=
EXTT7=
PLAYORDER=
